<?xml version="1.0" standalone="no"?>
<!DOCTYPE svg PUBLIC "-//W3C//DTD SVG 20010904//EN"
 "http://www.w3.org/TR/2001/REC-SVG-20010904/DTD/svg10.dtd">
<svg version="1.0" xmlns="http://www.w3.org/2000/svg"
 width="4500.000000pt" height="4500.000000pt" viewBox="0 0 4500.000000 4500.000000"
 preserveAspectRatio="xMidYMid meet">
<metadata>
Created by potrace 1.14, written by Peter Selinger 2001-2017
</metadata>
<g transform="translate(0.000000,4500.000000) scale(0.100000,-0.100000)"
fill="#000000" stroke="none">
<path d="M21988 43515 c-2 -2 -95 -6 -208 -10 -113 -3 -234 -8 -270 -10 -216
-11 -350 -20 -475 -30 -33 -2 -98 -7 -145 -11 -47 -3 -98 -7 -115 -9 -16 -2
-66 -6 -110 -9 -44 -4 -91 -9 -105 -11 -14 -2 -61 -7 -105 -10 -44 -4 -89 -9
-100 -11 -11 -2 -49 -6 -85 -10 -36 -3 -76 -7 -90 -9 -14 -2 -50 -7 -80 -10
-30 -3 -66 -8 -80 -10 -14 -2 -49 -7 -79 -10 -30 -4 -63 -9 -75 -11 -12 -2
-43 -6 -71 -9 -27 -4 -63 -8 -80 -11 -16 -3 -41 -7 -55 -9 -14 -2 -45 -6 -70
-9 -25 -3 -54 -8 -65 -10 -11 -2 -40 -7 -65 -10 -25 -3 -56 -8 -70 -11 -14 -3
-43 -7 -65 -10 -22 -3 -51 -7 -65 -10 -14 -3 -38 -7 -55 -10 -16 -2 -41 -7
-55 -9 -13 -3 -40 -8 -60 -11 -20 -3 -47 -8 -60 -10 -52 -11 -86 -17 -105 -20
-20 -2 -117 -20 -165 -30 -14 -3 -36 -7 -50 -10 -14 -3 -36 -7 -50 -10 -14 -3
-47 -9 -75 -15 -27 -5 -61 -12 -75 -15 -14 -3 -38 -8 -55 -11 -16 -2 -46 -9
-65 -14 -19 -5 -53 -12 -75 -16 -22 -3 -43 -8 -46 -10 -3 -2 -19 -6 -35 -8
-16 -3 -40 -8 -54 -11 -14 -3 -34 -8 -45 -10 -38 -9 -65 -15 -87 -21 -13 -3
-34 -7 -48 -10 -14 -3 -43 -10 -65 -15 -22 -5 -48 -12 -59 -14 -35 -8 -431
-106 -441 -109 -5 -2 -14 -5 -20 -6 -5 -1 -20 -6 -33 -11 -22 -8 -32 -11 -95
-24 -15 -3 -47 -12 -70 -19 -23 -8 -55 -17 -72 -21 -16 -5 -34 -9 -40 -11 -63
-18 -123 -36 -135 -39 -8 -2 -69 -20 -135 -40 -66 -20 -133 -40 -150 -45 -16
-4 -50 -14 -75 -23 -39 -13 -216 -69 -230 -72 -3 -1 -12 -4 -20 -8 -8 -3 -110
-37 -227 -76 -193 -65 -384 -131 -423 -148 -8 -3 -22 -7 -30 -9 -8 -2 -23 -7
-35 -13 -11 -5 -51 -21 -90 -34 -71 -26 -294 -110 -330 -126 -11 -5 -85 -35
-165 -67 -80 -32 -165 -67 -190 -78 -25 -11 -49 -21 -55 -22 -5 -1 -30 -11
-55 -22 -25 -11 -83 -37 -130 -57 -47 -20 -99 -43 -115 -50 -38 -17 -88 -38
-95 -39 -3 -1 -30 -13 -60 -28 -30 -14 -77 -36 -105 -48 -67 -30 -184 -85
-272 -127 -40 -19 -74 -34 -75 -34 -6 2 -818 -409 -828 -419 -3 -3 -43 -25
-90 -49 -47 -24 -102 -55 -122 -68 -21 -12 -40 -23 -42 -23 -3 0 -31 -15 -63
-34 -32 -18 -80 -46 -108 -61 -49 -27 -80 -45 -220 -126 -145 -84 -405 -240
-508 -306 -37 -24 -69 -43 -72 -43 -5 0 -98 -61 -105 -70 -3 -3 -22 -14 -43
-25 -21 -11 -47 -28 -57 -37 -11 -10 -22 -18 -25 -18 -26 0 -833 -559 -1142
-791 -61 -46 -123 -93 -137 -103 -51 -37 -311 -239 -316 -245 -3 -3 -32 -26
-65 -51 -33 -25 -64 -50 -70 -56 -5 -5 -32 -28 -60 -49 -218 -171 -716 -599
-965 -830 -35 -33 -70 -64 -76 -70 -35 -29 -459 -434 -588 -561 -39 -39 -364
-375 -425 -440 -41 -44 -97 -104 -126 -134 -52 -55 -210 -229 -336 -371 -37
-41 -126 -144 -199 -229 -73 -85 -144 -168 -159 -185 -53 -61 -121 -144 -270
-330 -84 -104 -158 -197 -164 -205 -100 -124 -405 -529 -539 -716 -189 -263
-428 -611 -428 -624 0 -5 -4 -10 -8 -10 -4 0 -16 -15 -27 -32 -10 -18 -57 -91
-103 -163 -47 -71 -100 -153 -118 -182 -19 -28 -34 -56 -34 -61 0 -6 -4 -12
-9 -14 -7 -2 -96 -142 -160 -250 -9 -15 -47 -80 -86 -145 -38 -64 -72 -122
-74 -128 -2 -5 -7 -12 -11 -15 -5 -4 -164 -281 -249 -432 -106 -191 -178 -325
-219 -408 -20 -41 -40 -77 -43 -80 -8 -7 -308 -611 -378 -760 -77 -165 -116
-249 -136 -295 -10 -22 -28 -62 -42 -90 -14 -27 -24 -50 -22 -50 1 0 -10 -25
-24 -55 -14 -30 -37 -84 -52 -120 -26 -62 -55 -131 -75 -175 -5 -11 -28 -65
-50 -120 -23 -55 -47 -113 -54 -130 -17 -39 -80 -199 -82 -205 0 -3 -5 -16
-11 -30 -6 -14 -19 -45 -28 -70 -18 -49 -22 -57 -55 -140 -12 -30 -23 -59 -25
-65 -1 -5 -8 -23 -14 -40 -7 -16 -19 -48 -26 -70 -7 -22 -25 -71 -40 -110 -43
-115 -82 -227 -171 -495 -47 -140 -88 -262 -91 -270 -7 -18 -6 -15 -22 -69 -7
-24 -25 -83 -41 -131 -28 -86 -54 -175 -50 -175 1 0 -4 -13 -10 -30 -7 -16
-16 -43 -20 -60 -5 -16 -16 -55 -25 -85 -9 -30 -18 -62 -20 -70 -2 -8 -17 -63
-34 -121 -29 -103 -69 -248 -76 -279 -2 -8 -8 -30 -14 -47 -5 -18 -8 -33 -6
-33 2 0 -2 -19 -11 -41 -8 -23 -16 -51 -19 -63 -4 -22 -12 -55 -20 -83 -2 -10
-12 -47 -20 -83 -9 -36 -19 -74 -22 -85 -2 -11 -6 -29 -8 -40 -2 -11 -6 -30
-9 -42 -4 -13 -8 -31 -10 -40 -2 -10 -16 -66 -30 -126 -14 -59 -28 -118 -30
-130 -2 -12 -9 -42 -15 -67 -5 -25 -13 -60 -16 -79 -3 -19 -7 -37 -9 -40 -2
-3 -7 -22 -10 -41 -7 -45 -14 -77 -20 -98 -3 -9 -7 -33 -10 -52 -3 -19 -8 -46
-11 -60 -3 -14 -8 -38 -10 -55 -3 -16 -8 -37 -10 -45 -2 -8 -7 -28 -10 -45 -2
-16 -7 -41 -10 -55 -2 -13 -7 -42 -11 -64 -3 -22 -7 -43 -10 -47 -2 -3 -6 -24
-9 -45 -2 -21 -7 -49 -9 -60 -2 -12 -7 -37 -10 -55 -3 -19 -8 -45 -11 -59 -3
-14 -7 -45 -10 -69 -3 -24 -7 -46 -9 -50 -2 -3 -7 -26 -10 -51 -3 -25 -8 -54
-10 -65 -2 -11 -7 -42 -11 -70 -11 -76 -13 -88 -19 -120 -2 -16 -8 -50 -11
-75 -3 -25 -8 -56 -10 -70 -3 -22 -10 -74 -20 -150 -1 -14 -5 -43 -9 -65 -6
-38 -10 -75 -22 -170 -2 -22 -7 -57 -9 -77 -6 -42 -13 -98 -20 -155 -2 -21 -7
-67 -11 -103 -3 -36 -7 -76 -9 -90 -4 -36 -16 -158 -20 -210 -3 -25 -7 -70
-10 -100 -14 -152 -21 -240 -30 -385 -3 -44 -7 -105 -10 -135 -3 -48 -9 -145
-20 -375 -32 -620 -22 -1693 20 -2310 16 -237 22 -315 30 -406 3 -31 7 -84 10
-119 3 -35 7 -91 11 -124 3 -34 7 -74 9 -91 7 -83 17 -173 20 -195 2 -14 6
-54 10 -90 4 -36 9 -81 11 -100 7 -59 14 -118 19 -167 3 -27 7 -59 10 -73 2
-14 7 -47 10 -75 8 -66 15 -114 20 -145 3 -14 7 -47 10 -75 3 -27 8 -63 11
-80 6 -33 8 -44 19 -124 3 -30 9 -63 11 -75 2 -11 6 -36 9 -56 3 -20 7 -47 10
-60 3 -13 7 -40 10 -60 3 -20 8 -47 10 -60 3 -14 7 -41 10 -60 3 -19 7 -46 10
-60 3 -14 7 -40 10 -59 2 -18 7 -41 9 -50 3 -9 7 -32 10 -51 8 -54 34 -189 67
-355 17 -82 33 -159 35 -170 4 -23 12 -59 20 -95 3 -14 12 -54 19 -90 22 -104
24 -111 29 -128 3 -9 7 -28 10 -42 6 -30 22 -107 29 -135 3 -11 13 -51 22 -90
18 -78 23 -96 30 -125 3 -11 7 -29 10 -40 3 -11 7 -29 10 -40 3 -11 7 -28 9
-37 7 -28 76 -296 81 -313 3 -8 12 -42 20 -75 18 -70 17 -63 50 -185 15 -52
47 -162 72 -245 24 -82 56 -188 69 -234 14 -46 29 -92 35 -102 5 -11 7 -19 3
-19 -3 0 -1 -7 6 -15 7 -8 10 -15 6 -15 -3 0 0 -17 8 -37 8 -21 28 -83 46
-138 17 -55 34 -107 37 -115 3 -8 7 -19 9 -25 18 -70 205 -595 294 -825 10
-25 31 -81 48 -125 49 -130 115 -296 152 -380 8 -16 14 -32 15 -35 1 -6 61
-151 85 -205 10 -22 32 -74 50 -115 18 -41 45 -103 61 -138 16 -35 29 -65 29
-67 0 -2 13 -32 29 -67 16 -35 47 -101 68 -148 22 -47 57 -123 79 -170 93
-203 422 -852 526 -1040 17 -30 46 -84 66 -120 48 -90 311 -549 332 -580 9
-14 24 -38 32 -55 41 -82 495 -798 509 -803 5 -2 9 -8 9 -13 0 -6 4 -15 10
-22 5 -7 49 -70 97 -142 48 -71 115 -170 150 -220 34 -49 81 -117 104 -149 23
-33 46 -65 50 -70 5 -6 71 -96 147 -201 76 -104 169 -230 207 -280 193 -251
279 -361 290 -370 6 -5 16 -17 21 -26 9 -16 49 -67 109 -138 17 -20 50 -61 75
-91 145 -177 222 -268 425 -500 112 -128 376 -420 430 -476 16 -17 86 -91 155
-164 69 -73 231 -237 360 -366 239 -237 293 -290 461 -447 154 -144 161 -151
230 -213 36 -32 84 -76 106 -96 23 -21 84 -74 135 -119 51 -45 120 -105 153
-134 183 -161 612 -512 830 -680 50 -38 92 -72 95 -75 10 -11 372 -278 420
-310 12 -8 28 -20 34 -25 10 -10 219 -159 273 -195 11 -8 64 -45 117 -82 53
-38 100 -68 105 -68 5 0 11 -3 13 -8 3 -9 243 -172 253 -172 3 0 15 -9 27 -20
12 -11 28 -20 35 -20 7 0 13 -4 13 -10 0 -5 6 -10 14 -10 8 0 16 -4 18 -9 2
-5 32 -27 68 -49 36 -22 106 -66 155 -97 50 -31 122 -76 160 -101 39 -24 81
-50 95 -57 14 -6 27 -14 30 -17 3 -4 43 -29 90 -57 111 -67 105 -63 422 -244
415 -237 500 -283 988 -527 206 -103 418 -207 470 -231 329 -152 324 -149 500
-225 85 -37 164 -71 175 -76 140 -61 192 -83 200 -84 6 -2 24 -9 40 -16 60
-26 92 -39 210 -85 66 -26 129 -51 140 -55 27 -12 179 -70 295 -113 52 -19
122 -45 155 -57 33 -12 65 -23 70 -24 6 -1 15 -4 20 -7 8 -5 76 -30 95 -34 3
-1 12 -4 20 -8 37 -15 334 -116 360 -122 8 -2 58 -18 110 -35 52 -18 100 -33
105 -35 6 -1 17 -5 25 -8 23 -9 183 -59 200 -62 8 -2 69 -20 135 -40 66 -20
125 -38 130 -39 6 -1 26 -7 45 -13 63 -19 145 -43 165 -48 23 -5 92 -23 115
-30 28 -8 95 -26 117 -30 12 -3 34 -10 48 -15 14 -5 25 -7 25 -4 0 2 8 0 18
-5 11 -6 32 -13 48 -16 36 -7 44 -9 69 -18 11 -3 34 -9 50 -12 36 -7 44 -9 70
-18 11 -3 31 -8 45 -11 14 -3 34 -7 45 -10 11 -3 61 -15 110 -26 50 -12 97
-23 105 -25 116 -28 159 -38 177 -40 11 -2 30 -6 42 -10 11 -3 31 -8 43 -11
13 -2 34 -6 48 -9 14 -3 45 -10 70 -15 25 -5 56 -12 70 -15 14 -3 38 -8 54
-11 16 -2 32 -6 35 -8 3 -2 22 -7 41 -10 19 -3 46 -8 60 -11 14 -3 39 -8 55
-10 17 -3 37 -8 45 -10 8 -2 31 -6 50 -9 19 -3 49 -8 65 -12 17 -3 39 -7 50
-9 11 -2 31 -6 45 -9 13 -3 42 -8 64 -12 22 -3 43 -7 46 -9 3 -1 25 -6 50 -9
49 -7 90 -14 130 -21 47 -10 67 -13 101 -18 63 -10 134 -21 139 -22 3 -1 30
-5 60 -9 30 -5 64 -10 75 -12 11 -2 40 -7 65 -10 25 -3 52 -7 60 -9 8 -2 42
-7 75 -11 33 -3 62 -7 65 -9 3 -2 33 -6 67 -10 34 -3 72 -8 84 -10 12 -3 45
-7 73 -10 28 -3 67 -7 86 -10 61 -8 124 -15 170 -20 124 -14 147 -17 170 -20
14 -2 57 -7 95 -10 39 -4 88 -8 110 -10 190 -19 231 -22 340 -30 50 -4 108 -9
130 -11 22 -2 83 -6 135 -9 52 -4 120 -8 150 -10 57 -4 266 -15 380 -20 541
-24 1358 -24 1865 0 260 12 356 18 670 40 94 7 190 14 245 20 25 3 72 7 105
10 88 8 143 14 205 20 30 3 80 8 110 11 30 2 66 7 80 9 14 2 52 7 85 10 33 3
71 8 85 10 14 2 50 6 80 9 30 4 66 8 80 11 14 3 48 7 75 10 28 3 61 8 75 10
14 2 45 6 70 9 25 3 56 8 70 10 14 3 45 7 70 10 25 3 54 8 65 10 11 2 40 7 65
10 25 3 54 8 65 10 11 2 40 7 65 10 25 3 56 8 70 11 14 2 36 7 50 10 14 2 43
7 65 10 23 3 52 8 65 10 14 3 39 7 55 10 17 3 41 7 55 10 14 3 39 7 55 10 17
3 41 7 55 10 14 3 39 7 55 10 28 4 41 7 105 20 14 3 41 8 60 11 19 3 43 7 52
10 10 3 28 7 40 10 13 2 34 6 48 9 14 3 41 8 60 11 19 3 43 7 52 10 10 3 28 7
40 10 13 2 33 6 46 9 99 22 257 57 282 61 14 3 33 7 42 10 9 3 25 6 35 8 10 2
59 14 108 26 50 12 97 23 105 25 8 2 35 8 60 15 43 12 54 14 101 25 11 2 29 7
39 10 10 3 28 8 39 10 47 11 58 13 101 25 25 7 53 14 62 15 10 2 22 6 26 9 5
3 19 7 33 9 13 3 44 11 69 18 25 7 50 14 55 15 6 2 35 10 65 17 30 8 111 31
180 51 69 21 130 38 135 39 6 2 16 6 23 10 6 5 12 6 12 3 0 -3 12 -1 28 5 15
6 34 12 42 14 117 27 1102 357 1230 412 8 3 17 7 20 8 3 1 12 4 20 7 43 17 56
21 65 23 11 3 109 41 140 54 11 5 36 15 55 21 33 12 78 30 125 51 11 4 88 35
170 68 83 32 171 68 198 80 26 11 49 20 52 20 3 1 20 8 38 18 17 9 34 18 37
18 3 1 21 8 40 16 19 9 62 26 95 40 33 13 62 27 63 32 2 4 8 7 14 7 12 0 211
88 348 154 47 22 87 40 90 41 10 1 285 135 545 266 329 166 359 181 365 188 3
4 28 17 55 31 43 21 328 176 438 239 20 11 52 29 70 39 17 11 58 34 90 53 32
19 70 41 86 49 44 25 465 279 531 321 14 9 102 65 195 124 94 60 172 112 173
117 2 4 8 8 13 8 26 0 880 596 1085 758 16 12 65 50 109 83 44 33 89 68 100
77 11 9 47 37 80 62 33 25 62 47 65 50 3 3 73 59 155 124 83 66 168 135 190
153 22 19 45 38 52 44 81 63 583 496 613 528 8 9 33 31 55 50 22 18 67 59 100
90 33 31 92 85 130 121 223 205 623 598 800 784 22 23 83 86 135 141 176 184
466 504 624 688 22 27 48 56 57 65 14 15 217 257 246 292 7 8 67 83 134 165
94 115 322 408 477 610 171 224 459 631 647 915 61 91 113 167 116 170 3 3 9
12 12 20 4 8 45 74 92 145 46 72 129 204 185 295 56 91 110 176 119 190 9 14
23 39 31 55 8 17 18 32 21 35 5 5 88 144 138 233 11 20 30 53 41 72 11 19 30
52 41 73 12 20 33 57 47 82 13 25 28 50 32 55 4 6 25 44 47 85 22 41 60 111
84 155 24 44 62 116 84 160 22 44 43 82 46 85 11 9 431 859 435 880 0 3 13 32
29 65 85 182 115 248 115 251 0 2 16 38 35 80 19 41 35 78 35 80 0 3 10 26 21
52 23 49 64 146 104 242 80 195 178 437 179 445 2 6 8 21 13 35 13 29 37 93
39 100 0 3 6 19 13 35 7 17 14 35 15 40 2 6 9 24 15 40 7 17 14 35 15 40 2 6
9 24 16 40 6 17 16 41 20 55 4 14 22 63 39 110 54 147 145 407 155 445 2 6 6
17 9 25 7 19 41 122 43 133 1 4 3 9 4 12 1 3 4 10 5 15 1 6 3 11 5 13 1 1 3 9
5 17 2 8 12 40 23 70 10 30 20 57 20 60 0 3 3 12 5 20 24 76 40 127 42 140 2
8 10 34 19 58 8 23 13 42 9 42 -3 0 -1 6 5 13 8 10 24 64 26 89 1 3 4 10 9 14
4 4 7 15 7 23 0 9 11 52 25 95 14 44 28 91 31 105 7 36 12 56 14 59 2 1 3 5 4
10 2 4 8 27 15 52 7 25 15 53 17 62 6 27 10 43 49 183 19 72 37 142 40 157 3
15 9 38 15 52 5 15 7 26 5 26 -2 0 0 11 5 25 5 14 12 36 14 48 3 12 7 32 10
45 8 30 12 49 26 107 6 28 14 58 16 68 2 9 6 26 9 38 2 11 6 28 9 37 3 9 7 28
10 42 5 25 8 40 20 90 3 14 8 36 10 50 2 14 11 54 20 90 15 63 21 91 31 148 3
15 8 41 12 57 4 17 7 32 8 35 0 3 4 21 8 40 4 19 9 46 12 60 3 14 7 36 10 50
3 14 7 36 10 50 3 14 8 39 10 55 3 17 8 37 10 45 2 8 6 31 9 50 3 19 7 44 10
55 2 11 7 40 12 65 4 25 8 47 9 50 0 3 4 27 9 53 4 27 9 59 12 70 12 60 18 96
29 171 3 22 8 53 11 70 3 17 7 43 9 57 3 15 7 44 10 65 3 22 7 48 9 59 2 11 7
45 11 75 4 30 9 64 11 75 4 19 8 50 20 145 3 25 7 54 9 65 2 11 6 43 9 70 4
28 9 61 11 75 2 14 7 54 11 90 3 36 8 76 9 90 2 14 6 50 10 80 4 30 8 73 10
95 2 22 6 58 9 80 3 22 8 69 11 105 3 36 8 81 10 100 3 19 7 67 10 105 3 39 8
95 10 125 18 203 39 525 50 755 27 566 27 1518 0 2060 -11 223 -17 335 -20
366 -2 20 -7 83 -10 140 -3 57 -8 120 -10 139 -2 19 -6 71 -10 115 -3 44 -8
100 -10 125 -2 25 -7 77 -10 115 -3 39 -8 84 -9 100 -2 17 -7 59 -10 95 -4 36
-8 81 -10 100 -4 34 -15 124 -21 185 -2 17 -6 50 -10 75 -3 25 -8 63 -10 85
-3 22 -8 60 -11 85 -3 25 -7 56 -9 70 -9 78 -16 128 -20 150 -2 14 -7 43 -10
65 -3 22 -7 51 -10 65 -2 14 -6 45 -9 70 -3 25 -8 54 -10 65 -2 11 -7 40 -10
65 -3 25 -8 56 -11 70 -3 14 -7 43 -10 65 -3 22 -7 51 -10 65 -2 13 -7 40 -10
60 -3 20 -8 47 -10 60 -6 29 -12 61 -20 110 -9 51 -14 82 -20 110 -3 14 -12
61 -20 105 -8 44 -17 91 -20 105 -5 25 -10 51 -20 110 -3 17 -12 63 -21 103
-8 39 -18 83 -20 97 -4 20 -13 62 -19 90 -3 11 -26 117 -30 140 -3 14 -10 45
-15 70 -6 25 -13 56 -16 70 -2 14 -7 33 -10 42 -3 9 -6 25 -8 35 -2 10 -9 36
-14 58 -6 22 -13 51 -16 65 -2 14 -21 90 -41 170 -20 80 -38 153 -40 163 -2
10 -7 27 -10 37 -3 10 -8 28 -10 39 -9 40 -14 57 -45 171 -17 63 -37 138 -45
165 -7 28 -21 75 -30 105 -9 30 -17 62 -20 70 -13 56 -80 278 -93 310 -5 14
-10 30 -11 35 -4 29 -142 467 -179 565 -3 8 -6 17 -7 20 -8 31 -113 332 -144
415 -11 28 -42 113 -70 190 -29 77 -56 149 -60 160 -5 11 -51 126 -101 255
-51 129 -101 255 -112 280 -11 25 -24 54 -29 65 -5 11 -29 70 -55 130 -25 61
-57 134 -70 163 -13 29 -35 78 -48 110 -27 64 -78 175 -139 302 -22 47 -41 87
-42 90 -12 35 -314 652 -324 660 -3 3 -30 52 -59 110 -67 134 -120 233 -282
525 -9 17 -32 57 -50 90 -18 33 -40 71 -48 83 -28 44 -53 87 -58 105 -4 9 -10
17 -15 17 -5 0 -9 5 -9 11 0 5 -35 68 -77 140 -43 71 -82 137 -88 147 -17 29
-148 239 -187 300 -20 31 -44 72 -53 90 -10 17 -21 32 -26 32 -5 0 -9 5 -9 11
0 14 -309 483 -321 487 -5 2 -9 8 -9 13 0 11 -161 242 -172 247 -5 2 -8 8 -8
13 0 7 -57 91 -98 144 -4 6 -32 44 -62 85 -29 41 -58 79 -62 85 -5 5 -58 78
-120 160 -161 218 -541 702 -572 730 -6 6 -23 26 -37 45 -15 19 -38 47 -52 62
-14 15 -31 36 -39 46 -22 32 -358 421 -429 497 -20 22 -85 94 -145 160 -98
108 -152 166 -337 359 -217 228 -612 617 -817 806 -62 58 -132 123 -156 145
-23 22 -71 65 -106 95 -34 30 -65 57 -68 60 -24 28 -473 414 -610 525 -25 20
-54 44 -65 54 -167 148 -884 690 -1235 934 -100 69 -605 408 -700 469 -185
119 -430 268 -440 268 -5 0 -10 3 -12 8 -3 6 -115 76 -174 108 -11 6 -54 31
-95 56 -69 42 -324 187 -449 255 -320 175 -363 197 -750 391 -333 166 -433
215 -605 292 -38 18 -86 39 -105 48 -19 9 -37 17 -40 18 -3 0 -25 10 -50 22
-87 41 -185 84 -235 104 -27 11 -78 33 -113 49 -35 16 -65 29 -67 29 -2 0 -16
5 -32 12 -15 6 -30 12 -33 13 -3 0 -27 11 -55 23 -27 13 -90 39 -140 58 -49
20 -99 40 -110 44 -33 15 -116 47 -185 73 -36 14 -114 44 -175 67 -60 23 -134
50 -162 61 -29 10 -77 28 -105 38 -96 36 -373 133 -388 136 -8 2 -32 11 -52
19 -21 9 -38 13 -38 10 0 -4 -6 -2 -12 3 -11 9 -46 20 -70 23 -4 0 -24 8 -45
16 -20 9 -44 17 -52 19 -9 2 -63 19 -121 38 -87 30 -241 78 -260 82 -3 0 -36
10 -75 22 -68 21 -305 90 -335 98 -8 2 -62 17 -120 33 -94 27 -146 40 -175 48
-8 2 -131 35 -185 49 -16 5 -90 23 -125 31 -33 8 -39 10 -60 17 -11 3 -31 8
-45 11 -14 3 -35 7 -47 10 -13 4 -31 8 -41 10 -9 2 -35 9 -57 14 -22 6 -51 13
-65 16 -27 5 -39 8 -115 26 -27 7 -60 14 -72 15 -11 2 -30 6 -42 10 -11 3 -31
8 -43 11 -13 2 -34 6 -48 10 -14 3 -34 7 -45 9 -21 4 -54 11 -92 20 -44 10
-69 15 -168 35 -123 25 -143 29 -175 35 -14 3 -36 7 -50 10 -14 3 -36 7 -50
10 -28 4 -72 12 -110 20 -14 3 -40 8 -59 11 -18 3 -43 8 -55 10 -11 2 -37 7
-56 10 -19 3 -42 7 -50 9 -8 2 -33 7 -55 10 -23 3 -52 7 -65 10 -13 3 -40 7
-60 10 -20 3 -47 8 -60 10 -14 3 -45 8 -70 11 -25 3 -54 8 -65 10 -11 2 -38 6
-60 9 -22 3 -51 7 -65 10 -13 3 -42 7 -65 10 -22 4 -51 8 -65 10 -14 2 -47 7
-75 11 -27 3 -61 8 -75 10 -14 2 -49 6 -78 9 -29 4 -62 8 -73 10 -11 2 -47 7
-80 10 -33 4 -70 8 -81 10 -12 3 -44 7 -72 10 -28 3 -67 8 -86 10 -33 4 -56 7
-187 20 -29 3 -70 8 -90 10 -21 2 -67 6 -103 10 -36 3 -87 8 -115 11 -27 3
-75 7 -105 9 -30 3 -80 7 -110 10 -30 3 -89 7 -130 10 -41 3 -100 7 -130 10
-30 2 -100 7 -155 10 -55 3 -131 7 -170 10 -38 2 -137 7 -220 11 -82 4 -186 8
-230 10 -101 5 -1303 13 -1307 9z"/>
</g>
</svg>
